<?xml version="1.0" encoding="UTF-8"?>
<svg xmlns="http://www.w3.org/2000/svg" width="766" height="292" viewBox="0 0 766 292" role="img" aria-label="Doctors for Madagascar logo">
  <title>Doctors for Madagascar logo</title>
  <path fill="#02ACEC" fill-rule="evenodd" d="M 592.00 23.00 L 604.00 23.00 L 604.00 24.00 L 606.00 24.00 L 606.00 25.00 L 611.00 29.00 L 611.00 31.00 L 612.00 31.00 L 612.00 33.00 L 613.00 33.00 L 613.00 36.00 L 614.00 36.00 L 614.00 43.00 L 613.00 43.00 L 613.00 45.00 L 612.00 45.00 L 611.00 48.00 L 609.00 48.00 L 609.00 49.00 L 604.00 49.00 L 604.00 48.00 L 602.00 48.00 L 602.00 47.00 L 600.00 46.00 L 600.00 40.00 L 602.00 39.00 L 602.00 37.00 L 603.00 37.00 L 604.00 34.00 L 605.00 34.00 L 604.00 29.00 L 603.00 29.00 L 602.00 27.00 L 600.00 27.00 L 600.00 26.00 L 592.00 26.00 L 592.00 27.00 L 590.00 27.00 L 590.00 28.00 L 587.00 30.00 L 587.00 32.00 L 586.00 32.00 L 586.00 34.00 L 585.00 34.00 L 584.00 42.00 L 583.00 42.00 L 583.00 47.00 L 582.00 47.00 L 582.00 53.00 L 581.00 53.00 L 580.00 63.00 L 595.00 63.00 L 595.00 64.00 L 594.00 64.00 L 594.00 66.00 L 579.00 66.00 L 579.00 67.00 L 578.00 67.00 L 578.00 71.00 L 577.00 71.00 L 577.00 75.00 L 576.00 75.00 L 576.00 79.00 L 575.00 79.00 L 575.00 83.00 L 574.00 83.00 L 574.00 87.00 L 573.00 87.00 L 573.00 91.00 L 572.00 91.00 L 571.00 99.00 L 570.00 99.00 L 570.00 102.00 L 569.00 102.00 L 569.00 106.00 L 568.00 106.00 L 568.00 110.00 L 567.00 110.00 L 567.00 114.00 L 566.00 114.00 L 566.00 118.00 L 565.00 118.00 L 565.00 122.00 L 564.00 122.00 L 564.00 126.00 L 563.00 126.00 L 563.00 130.00 L 562.00 130.00 L 562.00 134.00 L 561.00 134.00 L 560.00 142.00 L 559.00 142.00 L 559.00 145.00 L 558.00 145.00 L 558.00 147.00 L 557.00 147.00 L 557.00 150.00 L 556.00 150.00 L 555.00 154.00 L 553.00 155.00 L 552.00 159.00 L 551.00 159.00 L 551.00 160.00 L 549.00 161.00 L 549.00 163.00 L 548.00 163.00 L 543.00 169.00 L 541.00 169.00 L 540.00 171.00 L 537.00 171.00 L 537.00 172.00 L 535.00 172.00 L 535.00 173.00 L 524.00 173.00 L 524.00 172.00 L 520.00 171.00 L 520.00 170.00 L 516.00 167.00 L 516.00 165.00 L 515.00 165.00 L 515.00 163.00 L 514.00 163.00 L 514.00 154.00 L 515.00 154.00 L 515.00 152.00 L 516.00 152.00 L 518.00 149.00 L 520.00 149.00 L 520.00 148.00 L 525.00 148.00 L 525.00 149.00 L 527.00 149.00 L 527.00 151.00 L 528.00 151.00 L 528.00 157.00 L 527.00 157.00 L 526.00 160.00 L 524.00 161.00 L 524.00 167.00 L 525.00 167.00 L 526.00 169.00 L 528.00 169.00 L 528.00 170.00 L 533.00 170.00 L 533.00 169.00 L 537.00 168.00 L 537.00 167.00 L 539.00 166.00 L 539.00 164.00 L 541.00 163.00 L 541.00 160.00 L 542.00 160.00 L 543.00 155.00 L 544.00 155.00 L 545.00 147.00 L 546.00 147.00 L 546.00 142.00 L 547.00 142.00 L 547.00 138.00 L 548.00 138.00 L 548.00 133.00 L 549.00 133.00 L 549.00 129.00 L 550.00 129.00 L 550.00 125.00 L 551.00 125.00 L 551.00 121.00 L 552.00 121.00 L 552.00 117.00 L 553.00 117.00 L 553.00 113.00 L 554.00 113.00 L 554.00 109.00 L 555.00 109.00 L 555.00 105.00 L 556.00 105.00 L 557.00 97.00 L 558.00 97.00 L 558.00 94.00 L 559.00 94.00 L 559.00 90.00 L 560.00 90.00 L 560.00 86.00 L 561.00 86.00 L 561.00 82.00 L 562.00 82.00 L 562.00 78.00 L 563.00 78.00 L 563.00 74.00 L 564.00 74.00 L 564.00 70.00 L 565.00 70.00 L 565.00 66.00 L 562.00 66.00 L 562.00 65.00 L 556.00 65.00 L 556.00 63.00 L 566.00 63.00 L 566.00 62.00 L 567.00 62.00 L 567.00 58.00 L 568.00 58.00 L 568.00 55.00 L 569.00 55.00 L 569.00 52.00 L 570.00 52.00 L 570.00 49.00 L 571.00 49.00 L 571.00 46.00 L 572.00 46.00 L 572.00 43.00 L 573.00 43.00 L 575.00 37.00 L 577.00 36.00 L 577.00 34.00 L 578.00 34.00 L 578.00 33.00 L 579.00 33.00 L 579.00 32.00 L 580.00 32.00 L 585.00 26.00 L 587.00 26.00 L 587.00 25.00 L 589.00 25.00 L 589.00 24.00 L 592.00 24.00 Z M 11.00 40.00 L 53.00 40.00 L 53.00 41.00 L 62.00 42.00 L 62.00 43.00 L 65.00 43.00 L 65.00 44.00 L 67.00 44.00 L 67.00 45.00 L 73.00 47.00 L 75.00 50.00 L 77.00 50.00 L 77.00 51.00 L 78.00 51.00 L 78.00 52.00 L 84.00 57.00 L 84.00 59.00 L 87.00 61.00 L 87.00 63.00 L 88.00 63.00 L 88.00 65.00 L 89.00 65.00 L 89.00 67.00 L 90.00 67.00 L 90.00 69.00 L 91.00 69.00 L 91.00 72.00 L 92.00 72.00 L 92.00 75.00 L 93.00 75.00 L 93.00 79.00 L 94.00 79.00 L 94.00 101.00 L 93.00 101.00 L 92.00 109.00 L 91.00 109.00 L 91.00 111.00 L 90.00 111.00 L 90.00 114.00 L 89.00 114.00 L 88.00 118.00 L 87.00 118.00 L 86.00 121.00 L 82.00 124.00 L 82.00 126.00 L 81.00 126.00 L 80.00 128.00 L 78.00 128.00 L 75.00 132.00 L 73.00 132.00 L 72.00 134.00 L 70.00 134.00 L 70.00 135.00 L 68.00 135.00 L 68.00 136.00 L 66.00 136.00 L 66.00 137.00 L 63.00 137.00 L 63.00 138.00 L 60.00 138.00 L 60.00 139.00 L 55.00 139.00 L 55.00 140.00 L 11.00 140.00 Z M 269.00 51.00 L 282.00 51.00 L 282.00 72.00 L 296.00 72.00 L 296.00 84.00 L 282.00 84.00 L 282.00 140.00 L 268.00 140.00 L 268.00 84.00 L 255.00 84.00 L 255.00 72.00 L 268.00 72.00 L 268.00 52.00 L 269.00 52.00 Z M 26.00 53.00 L 26.00 127.00 L 49.00 127.00 L 49.00 126.00 L 58.00 125.00 L 58.00 124.00 L 60.00 124.00 L 60.00 123.00 L 66.00 121.00 L 66.00 120.00 L 67.00 120.00 L 67.00 119.00 L 73.00 114.00 L 73.00 112.00 L 74.00 112.00 L 74.00 110.00 L 75.00 110.00 L 75.00 108.00 L 76.00 108.00 L 76.00 106.00 L 77.00 106.00 L 78.00 99.00 L 79.00 99.00 L 79.00 81.00 L 78.00 81.00 L 78.00 77.00 L 77.00 77.00 L 77.00 74.00 L 76.00 74.00 L 74.00 68.00 L 72.00 67.00 L 72.00 65.00 L 71.00 65.00 L 68.00 61.00 L 66.00 61.00 L 64.00 58.00 L 62.00 58.00 L 62.00 57.00 L 60.00 57.00 L 60.00 56.00 L 58.00 56.00 L 58.00 55.00 L 48.00 54.00 L 48.00 53.00 Z M 687.00 60.00 L 695.00 60.00 L 695.00 61.00 L 697.00 62.00 L 697.00 73.00 L 696.00 73.00 L 696.00 77.00 L 695.00 77.00 L 695.00 80.00 L 694.00 80.00 L 694.00 82.00 L 693.00 82.00 L 693.00 85.00 L 692.00 85.00 L 692.00 88.00 L 691.00 88.00 L 690.00 94.00 L 691.00 94.00 L 691.00 92.00 L 692.00 92.00 L 692.00 90.00 L 693.00 90.00 L 695.00 84.00 L 697.00 83.00 L 698.00 79.00 L 700.00 78.00 L 701.00 74.00 L 704.00 72.00 L 704.00 70.00 L 705.00 70.00 L 710.00 64.00 L 712.00 64.00 L 712.00 63.00 L 715.00 62.00 L 715.00 61.00 L 725.00 61.00 L 725.00 62.00 L 727.00 62.00 L 727.00 63.00 L 730.00 65.00 L 730.00 67.00 L 731.00 67.00 L 731.00 76.00 L 730.00 76.00 L 730.00 78.00 L 729.00 78.00 L 726.00 82.00 L 719.00 82.00 L 719.00 81.00 L 717.00 81.00 L 717.00 79.00 L 716.00 79.00 L 716.00 74.00 L 717.00 74.00 L 717.00 72.00 L 718.00 72.00 L 718.00 69.00 L 717.00 69.00 L 717.00 68.00 L 712.00 68.00 L 711.00 70.00 L 709.00 70.00 L 709.00 71.00 L 706.00 73.00 L 706.00 75.00 L 703.00 77.00 L 702.00 81.00 L 700.00 82.00 L 698.00 88.00 L 696.00 89.00 L 696.00 91.00 L 695.00 91.00 L 695.00 93.00 L 694.00 93.00 L 694.00 95.00 L 693.00 95.00 L 693.00 97.00 L 692.00 97.00 L 692.00 99.00 L 691.00 99.00 L 691.00 101.00 L 690.00 101.00 L 690.00 103.00 L 689.00 103.00 L 689.00 106.00 L 688.00 106.00 L 688.00 108.00 L 687.00 108.00 L 687.00 110.00 L 686.00 110.00 L 686.00 112.00 L 685.00 112.00 L 685.00 114.00 L 684.00 114.00 L 684.00 117.00 L 683.00 117.00 L 683.00 119.00 L 682.00 119.00 L 682.00 122.00 L 681.00 122.00 L 681.00 124.00 L 680.00 124.00 L 680.00 126.00 L 679.00 126.00 L 679.00 129.00 L 678.00 129.00 L 678.00 131.00 L 677.00 131.00 L 676.00 137.00 L 675.00 137.00 L 675.00 138.00 L 662.00 138.00 L 662.00 137.00 L 663.00 137.00 L 663.00 134.00 L 664.00 134.00 L 664.00 131.00 L 665.00 131.00 L 665.00 128.00 L 666.00 128.00 L 666.00 125.00 L 667.00 125.00 L 667.00 122.00 L 668.00 122.00 L 668.00 119.00 L 669.00 119.00 L 669.00 116.00 L 670.00 116.00 L 670.00 113.00 L 671.00 113.00 L 671.00 110.00 L 672.00 110.00 L 672.00 106.00 L 673.00 106.00 L 673.00 103.00 L 674.00 103.00 L 674.00 100.00 L 675.00 100.00 L 675.00 97.00 L 676.00 97.00 L 676.00 94.00 L 677.00 94.00 L 677.00 91.00 L 678.00 91.00 L 679.00 85.00 L 680.00 85.00 L 680.00 81.00 L 681.00 81.00 L 681.00 78.00 L 682.00 78.00 L 682.00 75.00 L 683.00 75.00 L 683.00 71.00 L 684.00 71.00 L 684.00 68.00 L 683.00 68.00 L 683.00 67.00 L 680.00 68.00 L 680.00 69.00 L 677.00 70.00 L 677.00 71.00 L 675.00 72.00 L 675.00 74.00 L 671.00 77.00 L 671.00 79.00 L 668.00 81.00 L 668.00 83.00 L 666.00 84.00 L 666.00 86.00 L 663.00 86.00 L 663.00 84.00 L 665.00 83.00 L 665.00 81.00 L 667.00 80.00 L 667.00 78.00 L 670.00 76.00 L 670.00 74.00 L 671.00 74.00 L 671.00 73.00 L 672.00 73.00 L 672.00 72.00 L 673.00 72.00 L 673.00 71.00 L 674.00 71.00 L 674.00 70.00 L 675.00 70.00 L 675.00 69.00 L 676.00 69.00 L 681.00 63.00 L 683.00 63.00 L 684.00 61.00 L 687.00 61.00 Z M 624.00 61.00 L 637.00 61.00 L 637.00 62.00 L 640.00 62.00 L 640.00 63.00 L 642.00 63.00 L 642.00 64.00 L 643.00 64.00 L 643.00 65.00 L 649.00 70.00 L 649.00 72.00 L 650.00 72.00 L 650.00 74.00 L 651.00 74.00 L 651.00 77.00 L 652.00 77.00 L 652.00 80.00 L 653.00 80.00 L 653.00 88.00 L 654.00 88.00 L 654.00 92.00 L 653.00 92.00 L 653.00 100.00 L 652.00 100.00 L 652.00 104.00 L 651.00 104.00 L 650.00 110.00 L 649.00 110.00 L 649.00 112.00 L 648.00 112.00 L 648.00 114.00 L 647.00 114.00 L 645.00 120.00 L 643.00 121.00 L 643.00 123.00 L 639.00 126.00 L 639.00 128.00 L 638.00 128.00 L 634.00 133.00 L 632.00 133.00 L 630.00 136.00 L 628.00 136.00 L 628.00 137.00 L 626.00 137.00 L 626.00 138.00 L 624.00 138.00 L 624.00 139.00 L 621.00 139.00 L 621.00 140.00 L 607.00 140.00 L 607.00 139.00 L 601.00 137.00 L 601.00 136.00 L 596.00 132.00 L 596.00 130.00 L 594.00 129.00 L 594.00 126.00 L 593.00 126.00 L 593.00 124.00 L 592.00 124.00 L 592.00 119.00 L 591.00 119.00 L 591.00 104.00 L 592.00 104.00 L 592.00 99.00 L 593.00 99.00 L 593.00 95.00 L 594.00 95.00 L 594.00 92.00 L 595.00 92.00 L 595.00 90.00 L 596.00 90.00 L 596.00 87.00 L 597.00 87.00 L 598.00 83.00 L 600.00 82.00 L 600.00 80.00 L 602.00 79.00 L 602.00 77.00 L 606.00 74.00 L 606.00 72.00 L 609.00 71.00 L 609.00 70.00 L 610.00 70.00 L 613.00 66.00 L 615.00 66.00 L 616.00 64.00 L 618.00 64.00 L 618.00 63.00 L 620.00 63.00 L 620.00 62.00 L 624.00 62.00 Z M 631.00 65.00 L 631.00 66.00 L 627.00 67.00 L 626.00 69.00 L 624.00 69.00 L 624.00 70.00 L 619.00 74.00 L 619.00 76.00 L 616.00 78.00 L 616.00 80.00 L 614.00 81.00 L 613.00 85.00 L 611.00 86.00 L 610.00 91.00 L 609.00 91.00 L 609.00 93.00 L 608.00 93.00 L 608.00 95.00 L 607.00 95.00 L 607.00 97.00 L 606.00 97.00 L 606.00 99.00 L 605.00 99.00 L 605.00 102.00 L 604.00 102.00 L 604.00 105.00 L 603.00 105.00 L 603.00 109.00 L 602.00 109.00 L 602.00 114.00 L 601.00 114.00 L 601.00 129.00 L 602.00 129.00 L 603.00 133.00 L 604.00 133.00 L 606.00 136.00 L 613.00 136.00 L 613.00 135.00 L 617.00 134.00 L 618.00 132.00 L 620.00 132.00 L 620.00 131.00 L 625.00 127.00 L 625.00 125.00 L 628.00 123.00 L 628.00 121.00 L 629.00 121.00 L 630.00 118.00 L 632.00 117.00 L 632.00 115.00 L 633.00 115.00 L 633.00 113.00 L 634.00 113.00 L 634.00 111.00 L 635.00 111.00 L 635.00 109.00 L 636.00 109.00 L 636.00 107.00 L 637.00 107.00 L 637.00 105.00 L 638.00 105.00 L 638.00 102.00 L 639.00 102.00 L 639.00 99.00 L 640.00 99.00 L 640.00 96.00 L 641.00 96.00 L 641.00 92.00 L 642.00 92.00 L 642.00 88.00 L 643.00 88.00 L 643.00 72.00 L 642.00 72.00 L 641.00 68.00 L 640.00 68.00 L 638.00 65.00 Z M 137.00 70.00 L 149.00 71.00 L 149.00 72.00 L 153.00 72.00 L 153.00 73.00 L 155.00 73.00 L 155.00 74.00 L 161.00 76.00 L 161.00 77.00 L 162.00 77.00 L 164.00 80.00 L 166.00 80.00 L 166.00 82.00 L 170.00 85.00 L 170.00 87.00 L 171.00 87.00 L 171.00 89.00 L 172.00 89.00 L 172.00 91.00 L 173.00 91.00 L 173.00 94.00 L 174.00 94.00 L 174.00 98.00 L 175.00 98.00 L 175.00 115.00 L 174.00 115.00 L 174.00 118.00 L 173.00 118.00 L 173.00 121.00 L 172.00 121.00 L 170.00 127.00 L 169.00 127.00 L 169.00 128.00 L 167.00 129.00 L 167.00 131.00 L 166.00 131.00 L 164.00 134.00 L 162.00 134.00 L 160.00 137.00 L 158.00 137.00 L 158.00 138.00 L 156.00 138.00 L 156.00 139.00 L 154.00 139.00 L 154.00 140.00 L 151.00 140.00 L 151.00 141.00 L 147.00 141.00 L 147.00 142.00 L 133.00 142.00 L 133.00 141.00 L 126.00 140.00 L 126.00 139.00 L 120.00 137.00 L 119.00 135.00 L 117.00 135.00 L 117.00 134.00 L 111.00 129.00 L 111.00 127.00 L 109.00 126.00 L 109.00 124.00 L 108.00 124.00 L 108.00 122.00 L 107.00 122.00 L 107.00 119.00 L 106.00 119.00 L 106.00 116.00 L 105.00 116.00 L 105.00 109.00 L 104.00 109.00 L 106.00 93.00 L 107.00 93.00 L 107.00 91.00 L 108.00 91.00 L 110.00 85.00 L 113.00 83.00 L 113.00 81.00 L 114.00 81.00 L 115.00 79.00 L 117.00 79.00 L 119.00 76.00 L 123.00 75.00 L 124.00 73.00 L 131.00 72.00 L 131.00 71.00 L 137.00 71.00 Z M 214.00 70.00 L 223.00 70.00 L 223.00 71.00 L 228.00 71.00 L 228.00 72.00 L 231.00 72.00 L 231.00 73.00 L 236.00 74.00 L 237.00 76.00 L 239.00 76.00 L 239.00 77.00 L 244.00 81.00 L 244.00 83.00 L 246.00 84.00 L 246.00 86.00 L 247.00 86.00 L 247.00 88.00 L 248.00 88.00 L 248.00 91.00 L 249.00 91.00 L 249.00 96.00 L 236.00 96.00 L 236.00 95.00 L 235.00 95.00 L 235.00 92.00 L 233.00 91.00 L 233.00 89.00 L 232.00 89.00 L 229.00 85.00 L 224.00 84.00 L 224.00 83.00 L 213.00 83.00 L 213.00 84.00 L 210.00 84.00 L 210.00 85.00 L 206.00 86.00 L 206.00 87.00 L 203.00 89.00 L 203.00 91.00 L 201.00 92.00 L 200.00 96.00 L 199.00 96.00 L 199.00 101.00 L 198.00 101.00 L 198.00 112.00 L 199.00 112.00 L 199.00 116.00 L 200.00 116.00 L 202.00 122.00 L 203.00 122.00 L 207.00 127.00 L 209.00 127.00 L 209.00 128.00 L 211.00 128.00 L 211.00 129.00 L 217.00 129.00 L 217.00 130.00 L 219.00 130.00 L 219.00 129.00 L 225.00 129.00 L 225.00 128.00 L 229.00 127.00 L 229.00 126.00 L 234.00 122.00 L 234.00 120.00 L 235.00 120.00 L 236.00 117.00 L 250.00 117.00 L 250.00 118.00 L 249.00 118.00 L 249.00 121.00 L 248.00 121.00 L 248.00 124.00 L 247.00 124.00 L 247.00 126.00 L 246.00 126.00 L 246.00 128.00 L 244.00 129.00 L 244.00 131.00 L 243.00 131.00 L 239.00 136.00 L 235.00 137.00 L 234.00 139.00 L 231.00 139.00 L 231.00 140.00 L 229.00 140.00 L 229.00 141.00 L 224.00 141.00 L 224.00 142.00 L 211.00 142.00 L 211.00 141.00 L 207.00 141.00 L 207.00 140.00 L 204.00 140.00 L 204.00 139.00 L 198.00 137.00 L 198.00 136.00 L 197.00 136.00 L 197.00 135.00 L 191.00 130.00 L 191.00 128.00 L 189.00 127.00 L 189.00 125.00 L 188.00 125.00 L 188.00 123.00 L 187.00 123.00 L 187.00 120.00 L 186.00 120.00 L 186.00 117.00 L 185.00 117.00 L 185.00 109.00 L 184.00 109.00 L 185.00 96.00 L 186.00 96.00 L 186.00 92.00 L 187.00 92.00 L 187.00 90.00 L 188.00 90.00 L 190.00 84.00 L 191.00 84.00 L 191.00 83.00 L 193.00 82.00 L 193.00 80.00 L 194.00 80.00 L 195.00 78.00 L 197.00 78.00 L 199.00 75.00 L 201.00 75.00 L 201.00 74.00 L 203.00 74.00 L 203.00 73.00 L 205.00 73.00 L 205.00 72.00 L 208.00 72.00 L 208.00 71.00 L 214.00 71.00 Z M 334.00 70.00 L 346.00 71.00 L 346.00 72.00 L 350.00 72.00 L 350.00 73.00 L 352.00 73.00 L 352.00 74.00 L 358.00 76.00 L 358.00 77.00 L 359.00 77.00 L 361.00 80.00 L 363.00 80.00 L 363.00 82.00 L 367.00 85.00 L 367.00 87.00 L 368.00 87.00 L 368.00 89.00 L 369.00 89.00 L 369.00 91.00 L 370.00 91.00 L 370.00 94.00 L 371.00 94.00 L 371.00 98.00 L 372.00 98.00 L 372.00 115.00 L 371.00 115.00 L 371.00 118.00 L 370.00 118.00 L 370.00 121.00 L 369.00 121.00 L 367.00 127.00 L 366.00 127.00 L 366.00 128.00 L 364.00 129.00 L 364.00 131.00 L 363.00 131.00 L 361.00 134.00 L 359.00 134.00 L 357.00 137.00 L 355.00 137.00 L 355.00 138.00 L 353.00 138.00 L 353.00 139.00 L 351.00 139.00 L 351.00 140.00 L 348.00 140.00 L 348.00 141.00 L 344.00 141.00 L 344.00 142.00 L 330.00 142.00 L 330.00 141.00 L 323.00 140.00 L 323.00 139.00 L 317.00 137.00 L 316.00 135.00 L 314.00 135.00 L 314.00 134.00 L 308.00 129.00 L 308.00 127.00 L 306.00 126.00 L 306.00 124.00 L 305.00 124.00 L 305.00 122.00 L 304.00 122.00 L 304.00 119.00 L 303.00 119.00 L 303.00 116.00 L 302.00 116.00 L 302.00 109.00 L 301.00 109.00 L 303.00 93.00 L 304.00 93.00 L 304.00 91.00 L 305.00 91.00 L 307.00 85.00 L 310.00 83.00 L 310.00 81.00 L 311.00 81.00 L 312.00 79.00 L 314.00 79.00 L 316.00 76.00 L 320.00 75.00 L 321.00 73.00 L 328.00 72.00 L 328.00 71.00 L 334.00 71.00 Z M 453.00 70.00 L 464.00 70.00 L 464.00 71.00 L 468.00 71.00 L 468.00 72.00 L 471.00 72.00 L 471.00 73.00 L 475.00 74.00 L 475.00 75.00 L 481.00 80.00 L 481.00 82.00 L 482.00 82.00 L 482.00 84.00 L 483.00 84.00 L 483.00 88.00 L 484.00 88.00 L 484.00 92.00 L 471.00 92.00 L 471.00 91.00 L 470.00 91.00 L 470.00 87.00 L 468.00 86.00 L 468.00 84.00 L 466.00 84.00 L 465.00 82.00 L 462.00 82.00 L 462.00 81.00 L 455.00 81.00 L 455.00 82.00 L 452.00 82.00 L 452.00 83.00 L 448.00 84.00 L 448.00 86.00 L 447.00 86.00 L 447.00 88.00 L 446.00 88.00 L 446.00 92.00 L 447.00 92.00 L 448.00 96.00 L 450.00 96.00 L 451.00 98.00 L 454.00 98.00 L 454.00 99.00 L 457.00 99.00 L 457.00 100.00 L 461.00 100.00 L 461.00 101.00 L 465.00 101.00 L 465.00 102.00 L 469.00 102.00 L 469.00 103.00 L 475.00 104.00 L 475.00 105.00 L 477.00 105.00 L 479.00 108.00 L 481.00 108.00 L 481.00 110.00 L 482.00 110.00 L 483.00 113.00 L 484.00 113.00 L 484.00 116.00 L 485.00 116.00 L 485.00 126.00 L 484.00 126.00 L 482.00 132.00 L 481.00 132.00 L 476.00 138.00 L 474.00 138.00 L 474.00 139.00 L 472.00 139.00 L 472.00 140.00 L 469.00 140.00 L 469.00 141.00 L 465.00 141.00 L 465.00 142.00 L 451.00 142.00 L 451.00 141.00 L 446.00 141.00 L 446.00 140.00 L 440.00 138.00 L 440.00 137.00 L 434.00 132.00 L 434.00 130.00 L 433.00 130.00 L 433.00 128.00 L 432.00 128.00 L 432.00 124.00 L 431.00 124.00 L 431.00 120.00 L 444.00 120.00 L 444.00 121.00 L 445.00 121.00 L 445.00 125.00 L 446.00 125.00 L 446.00 127.00 L 449.00 128.00 L 450.00 130.00 L 454.00 130.00 L 454.00 131.00 L 462.00 131.00 L 462.00 130.00 L 466.00 130.00 L 466.00 129.00 L 468.00 129.00 L 468.00 128.00 L 471.00 126.00 L 472.00 120.00 L 471.00 120.00 L 471.00 117.00 L 470.00 117.00 L 469.00 115.00 L 467.00 115.00 L 467.00 114.00 L 465.00 114.00 L 465.00 113.00 L 461.00 113.00 L 461.00 112.00 L 457.00 112.00 L 457.00 111.00 L 453.00 111.00 L 453.00 110.00 L 449.00 110.00 L 449.00 109.00 L 443.00 108.00 L 442.00 106.00 L 440.00 106.00 L 440.00 105.00 L 435.00 101.00 L 434.00 96.00 L 433.00 96.00 L 433.00 86.00 L 434.00 86.00 L 434.00 83.00 L 435.00 83.00 L 435.00 81.00 L 437.00 80.00 L 437.00 78.00 L 438.00 78.00 L 440.00 75.00 L 442.00 75.00 L 442.00 74.00 L 444.00 74.00 L 444.00 73.00 L 446.00 73.00 L 446.00 72.00 L 449.00 72.00 L 449.00 71.00 L 453.00 71.00 Z M 412.00 71.00 L 425.00 71.00 L 425.00 84.00 L 412.00 85.00 L 412.00 86.00 L 409.00 86.00 L 408.00 88.00 L 406.00 88.00 L 406.00 89.00 L 404.00 90.00 L 404.00 92.00 L 402.00 93.00 L 401.00 98.00 L 400.00 98.00 L 400.00 140.00 L 386.00 140.00 L 386.00 72.00 L 399.00 72.00 L 399.00 79.00 L 401.00 80.00 L 401.00 78.00 L 402.00 78.00 L 405.00 74.00 L 407.00 74.00 L 407.00 73.00 L 409.00 73.00 L 409.00 72.00 L 412.00 72.00 Z M 134.00 83.00 L 134.00 84.00 L 131.00 84.00 L 131.00 85.00 L 129.00 85.00 L 128.00 87.00 L 126.00 87.00 L 126.00 88.00 L 123.00 90.00 L 123.00 92.00 L 121.00 93.00 L 121.00 95.00 L 120.00 95.00 L 120.00 98.00 L 119.00 98.00 L 119.00 104.00 L 118.00 104.00 L 119.00 114.00 L 120.00 114.00 L 120.00 117.00 L 121.00 117.00 L 122.00 121.00 L 123.00 121.00 L 127.00 126.00 L 129.00 126.00 L 130.00 128.00 L 133.00 128.00 L 133.00 129.00 L 139.00 129.00 L 139.00 130.00 L 141.00 130.00 L 141.00 129.00 L 147.00 129.00 L 147.00 128.00 L 153.00 126.00 L 153.00 125.00 L 157.00 122.00 L 157.00 120.00 L 159.00 119.00 L 159.00 117.00 L 160.00 117.00 L 160.00 114.00 L 161.00 114.00 L 161.00 107.00 L 162.00 107.00 L 162.00 106.00 L 161.00 106.00 L 161.00 99.00 L 160.00 99.00 L 160.00 96.00 L 159.00 96.00 L 158.00 92.00 L 156.00 91.00 L 156.00 89.00 L 153.00 88.00 L 152.00 86.00 L 150.00 86.00 L 149.00 84.00 L 145.00 84.00 L 145.00 83.00 Z M 331.00 83.00 L 331.00 84.00 L 328.00 84.00 L 328.00 85.00 L 326.00 85.00 L 325.00 87.00 L 323.00 87.00 L 323.00 88.00 L 320.00 90.00 L 320.00 92.00 L 318.00 93.00 L 318.00 95.00 L 317.00 95.00 L 317.00 98.00 L 316.00 98.00 L 316.00 104.00 L 315.00 104.00 L 316.00 114.00 L 317.00 114.00 L 317.00 117.00 L 318.00 117.00 L 319.00 121.00 L 320.00 121.00 L 324.00 126.00 L 326.00 126.00 L 327.00 128.00 L 330.00 128.00 L 330.00 129.00 L 336.00 129.00 L 336.00 130.00 L 338.00 130.00 L 338.00 129.00 L 344.00 129.00 L 344.00 128.00 L 350.00 126.00 L 350.00 125.00 L 354.00 122.00 L 354.00 120.00 L 356.00 119.00 L 356.00 117.00 L 357.00 117.00 L 357.00 114.00 L 358.00 114.00 L 358.00 107.00 L 359.00 107.00 L 359.00 106.00 L 358.00 106.00 L 358.00 99.00 L 357.00 99.00 L 357.00 96.00 L 356.00 96.00 L 355.00 92.00 L 353.00 91.00 L 353.00 89.00 L 350.00 88.00 L 349.00 86.00 L 347.00 86.00 L 346.00 84.00 L 342.00 84.00 L 342.00 83.00 Z M 690.00 94.00 L 689.00 94.00 L 689.00 96.00 L 690.00 96.00 Z M 689.00 96.00 L 688.00 96.00 L 688.00 99.00 L 689.00 99.00 Z M 688.00 99.00 L 687.00 99.00 L 687.00 101.00 L 688.00 101.00 Z M 687.00 102.00 L 686.00 102.00 L 686.00 103.00 L 687.00 103.00 Z M 252.00 156.00 L 266.00 156.00 L 266.00 258.00 L 254.00 258.00 L 254.00 257.00 L 253.00 257.00 L 253.00 248.00 L 251.00 249.00 L 251.00 251.00 L 250.00 251.00 L 247.00 255.00 L 245.00 255.00 L 244.00 257.00 L 241.00 257.00 L 241.00 258.00 L 239.00 258.00 L 239.00 259.00 L 235.00 259.00 L 235.00 260.00 L 222.00 260.00 L 222.00 259.00 L 219.00 259.00 L 219.00 258.00 L 215.00 258.00 L 214.00 256.00 L 210.00 255.00 L 210.00 254.00 L 209.00 254.00 L 209.00 253.00 L 203.00 248.00 L 203.00 246.00 L 201.00 245.00 L 201.00 242.00 L 200.00 242.00 L 200.00 240.00 L 199.00 240.00 L 199.00 237.00 L 198.00 237.00 L 198.00 233.00 L 197.00 233.00 L 197.00 216.00 L 198.00 216.00 L 198.00 212.00 L 199.00 212.00 L 200.00 206.00 L 201.00 206.00 L 201.00 204.00 L 203.00 203.00 L 203.00 201.00 L 205.00 200.00 L 205.00 198.00 L 206.00 198.00 L 208.00 195.00 L 210.00 195.00 L 210.00 194.00 L 213.00 193.00 L 214.00 191.00 L 217.00 191.00 L 217.00 190.00 L 220.00 190.00 L 220.00 189.00 L 225.00 189.00 L 225.00 188.00 L 234.00 188.00 L 234.00 189.00 L 241.00 190.00 L 241.00 191.00 L 245.00 192.00 L 246.00 194.00 L 248.00 194.00 L 248.00 195.00 L 250.00 196.00 L 250.00 198.00 L 252.00 199.00 Z M 11.00 158.00 L 25.00 158.00 L 25.00 159.00 L 26.00 159.00 L 26.00 161.00 L 27.00 161.00 L 27.00 163.00 L 28.00 163.00 L 28.00 166.00 L 29.00 166.00 L 29.00 168.00 L 30.00 168.00 L 30.00 171.00 L 31.00 171.00 L 31.00 173.00 L 32.00 173.00 L 32.00 176.00 L 33.00 176.00 L 33.00 178.00 L 34.00 178.00 L 34.00 181.00 L 35.00 181.00 L 35.00 183.00 L 36.00 183.00 L 36.00 185.00 L 37.00 185.00 L 37.00 188.00 L 38.00 188.00 L 38.00 190.00 L 39.00 190.00 L 39.00 193.00 L 40.00 193.00 L 40.00 195.00 L 41.00 195.00 L 41.00 198.00 L 42.00 198.00 L 42.00 200.00 L 43.00 200.00 L 43.00 203.00 L 44.00 203.00 L 44.00 205.00 L 45.00 205.00 L 45.00 207.00 L 46.00 207.00 L 46.00 210.00 L 47.00 210.00 L 47.00 212.00 L 48.00 212.00 L 48.00 215.00 L 49.00 215.00 L 49.00 217.00 L 50.00 217.00 L 50.00 220.00 L 51.00 220.00 L 51.00 222.00 L 52.00 222.00 L 52.00 225.00 L 53.00 225.00 L 53.00 227.00 L 54.00 227.00 L 54.00 229.00 L 55.00 229.00 L 55.00 232.00 L 56.00 232.00 L 57.00 237.00 L 58.00 237.00 L 59.00 240.00 L 60.00 240.00 L 60.00 238.00 L 61.00 238.00 L 61.00 235.00 L 62.00 235.00 L 63.00 230.00 L 64.00 230.00 L 64.00 228.00 L 65.00 228.00 L 65.00 225.00 L 66.00 225.00 L 66.00 223.00 L 67.00 223.00 L 67.00 221.00 L 68.00 221.00 L 68.00 218.00 L 69.00 218.00 L 69.00 216.00 L 70.00 216.00 L 70.00 213.00 L 71.00 213.00 L 72.00 208.00 L 73.00 208.00 L 73.00 206.00 L 74.00 206.00 L 74.00 204.00 L 75.00 204.00 L 75.00 201.00 L 76.00 201.00 L 76.00 199.00 L 77.00 199.00 L 77.00 196.00 L 78.00 196.00 L 78.00 194.00 L 79.00 194.00 L 79.00 191.00 L 80.00 191.00 L 81.00 186.00 L 82.00 186.00 L 82.00 184.00 L 83.00 184.00 L 83.00 182.00 L 84.00 182.00 L 84.00 179.00 L 85.00 179.00 L 85.00 177.00 L 86.00 177.00 L 86.00 174.00 L 87.00 174.00 L 87.00 172.00 L 88.00 172.00 L 88.00 169.00 L 89.00 169.00 L 89.00 167.00 L 90.00 167.00 L 90.00 164.00 L 91.00 164.00 L 93.00 158.00 L 108.00 158.00 L 108.00 258.00 L 93.00 258.00 L 93.00 200.00 L 94.00 200.00 L 94.00 190.00 L 93.00 190.00 L 93.00 193.00 L 92.00 193.00 L 92.00 195.00 L 91.00 195.00 L 91.00 198.00 L 90.00 198.00 L 90.00 200.00 L 89.00 200.00 L 89.00 203.00 L 88.00 203.00 L 87.00 208.00 L 86.00 208.00 L 86.00 210.00 L 85.00 210.00 L 85.00 212.00 L 84.00 212.00 L 84.00 215.00 L 83.00 215.00 L 83.00 217.00 L 82.00 217.00 L 82.00 220.00 L 81.00 220.00 L 81.00 222.00 L 80.00 222.00 L 80.00 225.00 L 79.00 225.00 L 79.00 227.00 L 78.00 227.00 L 78.00 230.00 L 77.00 230.00 L 77.00 232.00 L 76.00 232.00 L 76.00 235.00 L 75.00 235.00 L 75.00 237.00 L 74.00 237.00 L 74.00 240.00 L 73.00 240.00 L 73.00 242.00 L 72.00 242.00 L 72.00 245.00 L 71.00 245.00 L 71.00 247.00 L 70.00 247.00 L 70.00 250.00 L 69.00 250.00 L 69.00 252.00 L 68.00 252.00 L 66.00 258.00 L 52.00 258.00 L 51.00 253.00 L 50.00 253.00 L 50.00 251.00 L 49.00 251.00 L 49.00 249.00 L 48.00 249.00 L 48.00 246.00 L 47.00 246.00 L 47.00 244.00 L 46.00 244.00 L 46.00 241.00 L 45.00 241.00 L 45.00 239.00 L 44.00 239.00 L 44.00 236.00 L 43.00 236.00 L 43.00 234.00 L 42.00 234.00 L 42.00 231.00 L 41.00 231.00 L 41.00 229.00 L 40.00 229.00 L 40.00 226.00 L 39.00 226.00 L 39.00 224.00 L 38.00 224.00 L 38.00 221.00 L 37.00 221.00 L 37.00 219.00 L 36.00 219.00 L 36.00 216.00 L 35.00 216.00 L 35.00 214.00 L 34.00 214.00 L 34.00 211.00 L 33.00 211.00 L 33.00 209.00 L 32.00 209.00 L 32.00 207.00 L 31.00 207.00 L 31.00 204.00 L 30.00 204.00 L 29.00 199.00 L 28.00 199.00 L 28.00 197.00 L 27.00 197.00 L 27.00 194.00 L 26.00 194.00 L 26.00 192.00 L 25.00 192.00 L 25.00 258.00 L 11.00 258.00 Z M 150.00 188.00 L 161.00 188.00 L 161.00 189.00 L 169.00 190.00 L 169.00 191.00 L 175.00 193.00 L 175.00 194.00 L 180.00 198.00 L 180.00 200.00 L 181.00 200.00 L 181.00 202.00 L 182.00 202.00 L 182.00 204.00 L 183.00 204.00 L 183.00 208.00 L 184.00 208.00 L 184.00 258.00 L 172.00 258.00 L 172.00 251.00 L 170.00 250.00 L 165.00 256.00 L 163.00 256.00 L 163.00 257.00 L 161.00 257.00 L 161.00 258.00 L 154.00 259.00 L 154.00 260.00 L 142.00 260.00 L 142.00 259.00 L 138.00 259.00 L 138.00 258.00 L 133.00 257.00 L 133.00 256.00 L 127.00 251.00 L 127.00 249.00 L 126.00 249.00 L 125.00 241.00 L 124.00 241.00 L 124.00 238.00 L 125.00 238.00 L 125.00 232.00 L 126.00 232.00 L 127.00 228.00 L 128.00 228.00 L 133.00 222.00 L 135.00 222.00 L 135.00 221.00 L 137.00 221.00 L 137.00 220.00 L 139.00 220.00 L 139.00 219.00 L 149.00 218.00 L 149.00 217.00 L 171.00 216.00 L 171.00 211.00 L 170.00 211.00 L 170.00 207.00 L 169.00 207.00 L 169.00 205.00 L 168.00 205.00 L 165.00 201.00 L 157.00 200.00 L 157.00 199.00 L 148.00 200.00 L 148.00 201.00 L 143.00 202.00 L 143.00 203.00 L 141.00 204.00 L 141.00 206.00 L 139.00 207.00 L 139.00 212.00 L 126.00 212.00 L 126.00 211.00 L 127.00 211.00 L 127.00 205.00 L 128.00 205.00 L 128.00 202.00 L 130.00 201.00 L 130.00 199.00 L 131.00 199.00 L 136.00 193.00 L 138.00 193.00 L 138.00 192.00 L 140.00 192.00 L 140.00 191.00 L 142.00 191.00 L 142.00 190.00 L 145.00 190.00 L 145.00 189.00 L 150.00 189.00 Z M 307.00 188.00 L 318.00 188.00 L 318.00 189.00 L 326.00 190.00 L 326.00 191.00 L 330.00 192.00 L 330.00 193.00 L 331.00 193.00 L 331.00 194.00 L 337.00 199.00 L 337.00 201.00 L 338.00 201.00 L 338.00 203.00 L 339.00 203.00 L 340.00 211.00 L 341.00 211.00 L 341.00 258.00 L 329.00 258.00 L 329.00 255.00 L 328.00 255.00 L 328.00 249.00 L 327.00 249.00 L 327.00 251.00 L 326.00 251.00 L 323.00 255.00 L 321.00 255.00 L 320.00 257.00 L 317.00 257.00 L 317.00 258.00 L 315.00 258.00 L 315.00 259.00 L 311.00 259.00 L 311.00 260.00 L 298.00 260.00 L 298.00 259.00 L 294.00 259.00 L 294.00 258.00 L 290.00 257.00 L 289.00 255.00 L 287.00 255.00 L 287.00 254.00 L 284.00 252.00 L 283.00 248.00 L 282.00 248.00 L 282.00 245.00 L 281.00 245.00 L 281.00 234.00 L 282.00 234.00 L 282.00 231.00 L 283.00 231.00 L 284.00 227.00 L 285.00 227.00 L 288.00 223.00 L 290.00 223.00 L 290.00 222.00 L 293.00 221.00 L 293.00 220.00 L 299.00 219.00 L 299.00 218.00 L 327.00 216.00 L 327.00 209.00 L 326.00 209.00 L 326.00 206.00 L 324.00 205.00 L 324.00 203.00 L 321.00 202.00 L 321.00 201.00 L 319.00 201.00 L 319.00 200.00 L 314.00 200.00 L 314.00 199.00 L 304.00 200.00 L 304.00 201.00 L 300.00 202.00 L 300.00 203.00 L 296.00 206.00 L 295.00 212.00 L 283.00 212.00 L 283.00 207.00 L 284.00 207.00 L 284.00 204.00 L 285.00 204.00 L 285.00 201.00 L 287.00 200.00 L 287.00 198.00 L 288.00 198.00 L 291.00 194.00 L 293.00 194.00 L 294.00 192.00 L 299.00 191.00 L 299.00 190.00 L 302.00 190.00 L 302.00 189.00 L 307.00 189.00 Z M 382.00 188.00 L 391.00 188.00 L 391.00 189.00 L 398.00 190.00 L 398.00 191.00 L 400.00 191.00 L 401.00 193.00 L 403.00 193.00 L 403.00 194.00 L 408.00 198.00 L 408.00 200.00 L 409.00 200.00 L 410.00 190.00 L 422.00 190.00 L 422.00 264.00 L 421.00 264.00 L 421.00 268.00 L 420.00 268.00 L 420.00 271.00 L 419.00 271.00 L 417.00 277.00 L 416.00 277.00 L 416.00 278.00 L 415.00 278.00 L 415.00 279.00 L 414.00 279.00 L 409.00 285.00 L 407.00 285.00 L 407.00 286.00 L 405.00 286.00 L 405.00 287.00 L 403.00 287.00 L 403.00 288.00 L 397.00 289.00 L 397.00 290.00 L 379.00 290.00 L 379.00 289.00 L 375.00 289.00 L 375.00 288.00 L 373.00 288.00 L 373.00 287.00 L 370.00 287.00 L 369.00 285.00 L 367.00 285.00 L 367.00 284.00 L 366.00 284.00 L 366.00 283.00 L 365.00 283.00 L 365.00 282.00 L 359.00 277.00 L 359.00 275.00 L 358.00 275.00 L 358.00 273.00 L 357.00 273.00 L 357.00 271.00 L 356.00 271.00 L 356.00 268.00 L 355.00 268.00 L 355.00 264.00 L 354.00 264.00 L 354.00 262.00 L 368.00 262.00 L 371.00 271.00 L 372.00 271.00 L 374.00 274.00 L 376.00 274.00 L 377.00 276.00 L 384.00 277.00 L 384.00 278.00 L 392.00 278.00 L 392.00 277.00 L 396.00 277.00 L 396.00 276.00 L 400.00 275.00 L 401.00 273.00 L 403.00 273.00 L 404.00 270.00 L 405.00 270.00 L 406.00 267.00 L 407.00 267.00 L 407.00 264.00 L 408.00 264.00 L 408.00 258.00 L 409.00 258.00 L 409.00 245.00 L 408.00 245.00 L 408.00 247.00 L 407.00 247.00 L 404.00 251.00 L 402.00 251.00 L 401.00 253.00 L 399.00 253.00 L 399.00 254.00 L 397.00 254.00 L 397.00 255.00 L 394.00 255.00 L 394.00 256.00 L 388.00 256.00 L 388.00 257.00 L 377.00 256.00 L 377.00 255.00 L 373.00 255.00 L 373.00 254.00 L 369.00 253.00 L 368.00 251.00 L 366.00 251.00 L 366.00 250.00 L 360.00 245.00 L 360.00 243.00 L 358.00 242.00 L 358.00 240.00 L 357.00 240.00 L 357.00 238.00 L 356.00 238.00 L 355.00 232.00 L 354.00 232.00 L 354.00 224.00 L 353.00 224.00 L 353.00 221.00 L 354.00 221.00 L 354.00 213.00 L 355.00 213.00 L 355.00 210.00 L 356.00 210.00 L 356.00 207.00 L 357.00 207.00 L 358.00 203.00 L 360.00 202.00 L 360.00 200.00 L 361.00 200.00 L 361.00 199.00 L 362.00 199.00 L 367.00 193.00 L 369.00 193.00 L 369.00 192.00 L 371.00 192.00 L 371.00 191.00 L 373.00 191.00 L 373.00 190.00 L 376.00 190.00 L 376.00 189.00 L 382.00 189.00 Z M 463.00 188.00 L 474.00 188.00 L 474.00 189.00 L 482.00 190.00 L 482.00 191.00 L 486.00 192.00 L 487.00 194.00 L 489.00 194.00 L 489.00 195.00 L 491.00 196.00 L 491.00 198.00 L 493.00 199.00 L 493.00 201.00 L 495.00 202.00 L 496.00 209.00 L 497.00 209.00 L 497.00 258.00 L 485.00 258.00 L 485.00 253.00 L 484.00 253.00 L 484.00 249.00 L 483.00 249.00 L 483.00 251.00 L 482.00 251.00 L 479.00 255.00 L 477.00 255.00 L 476.00 257.00 L 474.00 257.00 L 474.00 258.00 L 467.00 259.00 L 467.00 260.00 L 454.00 260.00 L 454.00 259.00 L 450.00 259.00 L 450.00 258.00 L 446.00 257.00 L 445.00 255.00 L 443.00 255.00 L 443.00 253.00 L 440.00 251.00 L 440.00 249.00 L 439.00 249.00 L 439.00 247.00 L 438.00 247.00 L 438.00 243.00 L 437.00 243.00 L 437.00 235.00 L 438.00 235.00 L 439.00 229.00 L 440.00 229.00 L 441.00 226.00 L 442.00 226.00 L 443.00 224.00 L 445.00 224.00 L 447.00 221.00 L 450.00 221.00 L 450.00 220.00 L 452.00 220.00 L 452.00 219.00 L 456.00 219.00 L 456.00 218.00 L 462.00 218.00 L 462.00 217.00 L 483.00 216.00 L 483.00 208.00 L 482.00 208.00 L 481.00 204.00 L 480.00 204.00 L 479.00 202.00 L 475.00 201.00 L 475.00 200.00 L 470.00 200.00 L 470.00 199.00 L 460.00 200.00 L 460.00 201.00 L 456.00 202.00 L 456.00 203.00 L 453.00 205.00 L 453.00 207.00 L 452.00 207.00 L 452.00 211.00 L 451.00 211.00 L 451.00 212.00 L 439.00 212.00 L 440.00 204.00 L 441.00 204.00 L 442.00 200.00 L 444.00 199.00 L 444.00 197.00 L 445.00 197.00 L 447.00 194.00 L 451.00 193.00 L 452.00 191.00 L 455.00 191.00 L 455.00 190.00 L 458.00 190.00 L 458.00 189.00 L 463.00 189.00 Z M 531.00 188.00 L 541.00 188.00 L 541.00 189.00 L 546.00 189.00 L 546.00 190.00 L 548.00 190.00 L 548.00 191.00 L 551.00 191.00 L 552.00 193.00 L 554.00 193.00 L 554.00 194.00 L 557.00 196.00 L 557.00 198.00 L 559.00 199.00 L 560.00 204.00 L 561.00 204.00 L 561.00 210.00 L 548.00 210.00 L 548.00 207.00 L 547.00 207.00 L 546.00 203.00 L 545.00 203.00 L 544.00 201.00 L 542.00 201.00 L 542.00 200.00 L 539.00 200.00 L 539.00 199.00 L 532.00 199.00 L 532.00 200.00 L 527.00 201.00 L 527.00 202.00 L 524.00 204.00 L 523.00 209.00 L 524.00 209.00 L 524.00 212.00 L 525.00 212.00 L 528.00 216.00 L 531.00 216.00 L 531.00 217.00 L 534.00 217.00 L 534.00 218.00 L 538.00 218.00 L 538.00 219.00 L 542.00 219.00 L 542.00 220.00 L 546.00 220.00 L 546.00 221.00 L 552.00 222.00 L 552.00 223.00 L 556.00 224.00 L 556.00 225.00 L 559.00 227.00 L 559.00 229.00 L 561.00 230.00 L 561.00 233.00 L 562.00 233.00 L 562.00 244.00 L 561.00 244.00 L 561.00 247.00 L 560.00 247.00 L 560.00 249.00 L 558.00 250.00 L 558.00 252.00 L 557.00 252.00 L 556.00 254.00 L 554.00 254.00 L 553.00 256.00 L 551.00 256.00 L 551.00 257.00 L 549.00 257.00 L 549.00 258.00 L 546.00 258.00 L 546.00 259.00 L 542.00 259.00 L 542.00 260.00 L 528.00 260.00 L 528.00 259.00 L 524.00 259.00 L 524.00 258.00 L 521.00 258.00 L 521.00 257.00 L 517.00 256.00 L 517.00 255.00 L 512.00 251.00 L 512.00 249.00 L 510.00 248.00 L 510.00 245.00 L 509.00 245.00 L 509.00 239.00 L 508.00 239.00 L 508.00 238.00 L 522.00 238.00 L 522.00 242.00 L 523.00 242.00 L 523.00 244.00 L 524.00 244.00 L 526.00 247.00 L 531.00 248.00 L 531.00 249.00 L 539.00 249.00 L 539.00 248.00 L 543.00 248.00 L 543.00 247.00 L 545.00 247.00 L 545.00 246.00 L 548.00 244.00 L 548.00 242.00 L 549.00 242.00 L 549.00 237.00 L 548.00 237.00 L 548.00 235.00 L 547.00 235.00 L 545.00 232.00 L 542.00 232.00 L 542.00 231.00 L 539.00 231.00 L 539.00 230.00 L 534.00 230.00 L 534.00 229.00 L 530.00 229.00 L 530.00 228.00 L 523.00 227.00 L 523.00 226.00 L 517.00 224.00 L 517.00 223.00 L 513.00 220.00 L 513.00 218.00 L 512.00 218.00 L 512.00 216.00 L 511.00 216.00 L 511.00 213.00 L 510.00 213.00 L 510.00 206.00 L 511.00 206.00 L 511.00 202.00 L 512.00 202.00 L 513.00 198.00 L 514.00 198.00 L 519.00 192.00 L 521.00 192.00 L 521.00 191.00 L 523.00 191.00 L 523.00 190.00 L 526.00 190.00 L 526.00 189.00 L 531.00 189.00 Z M 601.00 188.00 L 610.00 188.00 L 610.00 189.00 L 615.00 189.00 L 615.00 190.00 L 618.00 190.00 L 618.00 191.00 L 623.00 192.00 L 624.00 194.00 L 626.00 194.00 L 626.00 195.00 L 632.00 200.00 L 632.00 202.00 L 634.00 203.00 L 634.00 206.00 L 635.00 206.00 L 635.00 208.00 L 636.00 208.00 L 636.00 212.00 L 637.00 212.00 L 637.00 214.00 L 623.00 214.00 L 621.00 208.00 L 620.00 208.00 L 616.00 203.00 L 614.00 203.00 L 614.00 202.00 L 612.00 202.00 L 612.00 201.00 L 600.00 201.00 L 600.00 202.00 L 597.00 202.00 L 597.00 203.00 L 595.00 203.00 L 593.00 206.00 L 591.00 206.00 L 591.00 208.00 L 588.00 210.00 L 588.00 213.00 L 587.00 213.00 L 587.00 215.00 L 586.00 215.00 L 585.00 228.00 L 586.00 228.00 L 586.00 233.00 L 587.00 233.00 L 587.00 236.00 L 588.00 236.00 L 589.00 240.00 L 590.00 240.00 L 594.00 245.00 L 599.00 246.00 L 599.00 247.00 L 604.00 247.00 L 604.00 248.00 L 612.00 247.00 L 612.00 246.00 L 616.00 245.00 L 616.00 244.00 L 622.00 239.00 L 622.00 236.00 L 623.00 236.00 L 623.00 235.00 L 637.00 235.00 L 636.00 240.00 L 635.00 240.00 L 635.00 243.00 L 634.00 243.00 L 634.00 245.00 L 632.00 246.00 L 632.00 248.00 L 631.00 248.00 L 626.00 254.00 L 624.00 254.00 L 623.00 256.00 L 621.00 256.00 L 621.00 257.00 L 619.00 257.00 L 619.00 258.00 L 616.00 258.00 L 616.00 259.00 L 612.00 259.00 L 612.00 260.00 L 598.00 260.00 L 598.00 259.00 L 594.00 259.00 L 594.00 258.00 L 591.00 258.00 L 591.00 257.00 L 587.00 256.00 L 587.00 255.00 L 584.00 254.00 L 584.00 253.00 L 579.00 249.00 L 579.00 247.00 L 576.00 245.00 L 576.00 242.00 L 575.00 242.00 L 574.00 237.00 L 573.00 237.00 L 573.00 234.00 L 572.00 234.00 L 572.00 215.00 L 573.00 215.00 L 573.00 211.00 L 574.00 211.00 L 574.00 208.00 L 575.00 208.00 L 576.00 204.00 L 578.00 203.00 L 578.00 201.00 L 579.00 201.00 L 579.00 200.00 L 580.00 200.00 L 580.00 199.00 L 581.00 199.00 L 586.00 193.00 L 588.00 193.00 L 588.00 192.00 L 590.00 192.00 L 590.00 191.00 L 592.00 191.00 L 592.00 190.00 L 601.00 189.00 Z M 672.00 188.00 L 683.00 188.00 L 683.00 189.00 L 691.00 190.00 L 691.00 191.00 L 695.00 192.00 L 696.00 194.00 L 698.00 194.00 L 698.00 195.00 L 700.00 196.00 L 700.00 198.00 L 702.00 199.00 L 702.00 201.00 L 704.00 202.00 L 705.00 209.00 L 706.00 209.00 L 706.00 258.00 L 694.00 258.00 L 694.00 253.00 L 693.00 253.00 L 693.00 249.00 L 692.00 249.00 L 692.00 251.00 L 691.00 251.00 L 688.00 255.00 L 686.00 255.00 L 685.00 257.00 L 683.00 257.00 L 683.00 258.00 L 676.00 259.00 L 676.00 260.00 L 663.00 260.00 L 663.00 259.00 L 659.00 259.00 L 659.00 258.00 L 655.00 257.00 L 654.00 255.00 L 652.00 255.00 L 652.00 253.00 L 649.00 251.00 L 649.00 249.00 L 648.00 249.00 L 648.00 247.00 L 647.00 247.00 L 647.00 243.00 L 646.00 243.00 L 646.00 235.00 L 647.00 235.00 L 648.00 229.00 L 649.00 229.00 L 650.00 226.00 L 651.00 226.00 L 652.00 224.00 L 654.00 224.00 L 656.00 221.00 L 659.00 221.00 L 659.00 220.00 L 661.00 220.00 L 661.00 219.00 L 665.00 219.00 L 665.00 218.00 L 671.00 218.00 L 671.00 217.00 L 692.00 216.00 L 692.00 208.00 L 691.00 208.00 L 690.00 204.00 L 689.00 204.00 L 688.00 202.00 L 684.00 201.00 L 684.00 200.00 L 679.00 200.00 L 679.00 199.00 L 669.00 200.00 L 669.00 201.00 L 665.00 202.00 L 665.00 203.00 L 662.00 205.00 L 662.00 207.00 L 661.00 207.00 L 661.00 211.00 L 660.00 211.00 L 660.00 212.00 L 648.00 212.00 L 649.00 204.00 L 650.00 204.00 L 651.00 200.00 L 653.00 199.00 L 653.00 197.00 L 654.00 197.00 L 656.00 194.00 L 660.00 193.00 L 661.00 191.00 L 664.00 191.00 L 664.00 190.00 L 667.00 190.00 L 667.00 189.00 L 672.00 189.00 Z M 749.00 189.00 L 762.00 189.00 L 762.00 190.00 L 763.00 190.00 L 763.00 202.00 L 749.00 203.00 L 749.00 204.00 L 745.00 205.00 L 744.00 207.00 L 742.00 207.00 L 742.00 209.00 L 740.00 210.00 L 740.00 212.00 L 739.00 212.00 L 739.00 214.00 L 738.00 214.00 L 738.00 217.00 L 737.00 217.00 L 737.00 258.00 L 723.00 258.00 L 723.00 190.00 L 736.00 190.00 L 736.00 194.00 L 737.00 194.00 L 737.00 198.00 L 738.00 198.00 L 740.00 194.00 L 742.00 194.00 L 744.00 191.00 L 747.00 191.00 L 747.00 190.00 L 749.00 190.00 Z M 386.00 200.00 L 386.00 201.00 L 378.00 202.00 L 377.00 204.00 L 375.00 204.00 L 375.00 205.00 L 371.00 208.00 L 371.00 210.00 L 370.00 210.00 L 370.00 212.00 L 369.00 212.00 L 369.00 214.00 L 368.00 214.00 L 367.00 225.00 L 368.00 225.00 L 369.00 233.00 L 370.00 233.00 L 370.00 235.00 L 372.00 236.00 L 372.00 238.00 L 373.00 238.00 L 375.00 241.00 L 377.00 241.00 L 377.00 242.00 L 379.00 242.00 L 379.00 243.00 L 381.00 243.00 L 381.00 244.00 L 394.00 244.00 L 394.00 243.00 L 397.00 243.00 L 398.00 241.00 L 400.00 241.00 L 400.00 240.00 L 404.00 237.00 L 404.00 235.00 L 406.00 234.00 L 406.00 231.00 L 407.00 231.00 L 407.00 228.00 L 408.00 228.00 L 408.00 217.00 L 407.00 217.00 L 407.00 213.00 L 406.00 213.00 L 405.00 209.00 L 403.00 208.00 L 403.00 206.00 L 401.00 206.00 L 399.00 203.00 L 397.00 203.00 L 397.00 202.00 L 395.00 202.00 L 395.00 201.00 L 389.00 201.00 L 389.00 200.00 Z M 226.00 201.00 L 226.00 202.00 L 223.00 202.00 L 223.00 203.00 L 219.00 204.00 L 219.00 205.00 L 215.00 208.00 L 215.00 210.00 L 214.00 210.00 L 214.00 212.00 L 213.00 212.00 L 213.00 214.00 L 212.00 214.00 L 212.00 218.00 L 211.00 218.00 L 211.00 231.00 L 212.00 231.00 L 212.00 234.00 L 213.00 234.00 L 213.00 237.00 L 215.00 238.00 L 215.00 240.00 L 216.00 240.00 L 219.00 244.00 L 221.00 244.00 L 222.00 246.00 L 225.00 246.00 L 225.00 247.00 L 238.00 247.00 L 238.00 246.00 L 244.00 244.00 L 244.00 243.00 L 248.00 240.00 L 248.00 238.00 L 249.00 238.00 L 249.00 236.00 L 250.00 236.00 L 250.00 234.00 L 251.00 234.00 L 251.00 231.00 L 252.00 231.00 L 252.00 218.00 L 251.00 218.00 L 251.00 214.00 L 250.00 214.00 L 249.00 210.00 L 247.00 209.00 L 247.00 207.00 L 246.00 207.00 L 245.00 205.00 L 243.00 205.00 L 242.00 203.00 L 237.00 202.00 L 237.00 201.00 Z M 162.00 226.00 L 162.00 227.00 L 152.00 227.00 L 152.00 228.00 L 147.00 228.00 L 147.00 229.00 L 143.00 230.00 L 143.00 231.00 L 139.00 234.00 L 139.00 238.00 L 138.00 238.00 L 138.00 240.00 L 139.00 240.00 L 139.00 244.00 L 140.00 244.00 L 142.00 247.00 L 146.00 248.00 L 146.00 249.00 L 157.00 249.00 L 157.00 248.00 L 160.00 248.00 L 160.00 247.00 L 164.00 246.00 L 164.00 245.00 L 167.00 243.00 L 167.00 241.00 L 168.00 241.00 L 168.00 239.00 L 169.00 239.00 L 169.00 237.00 L 170.00 237.00 L 171.00 226.00 Z M 318.00 226.00 L 318.00 227.00 L 308.00 227.00 L 308.00 228.00 L 304.00 228.00 L 304.00 229.00 L 299.00 230.00 L 299.00 231.00 L 296.00 233.00 L 296.00 235.00 L 295.00 235.00 L 295.00 242.00 L 296.00 242.00 L 297.00 246.00 L 298.00 246.00 L 298.00 247.00 L 301.00 247.00 L 301.00 248.00 L 303.00 248.00 L 303.00 249.00 L 313.00 249.00 L 313.00 248.00 L 317.00 248.00 L 318.00 246.00 L 320.00 246.00 L 320.00 245.00 L 325.00 241.00 L 325.00 238.00 L 326.00 238.00 L 326.00 235.00 L 327.00 235.00 L 327.00 226.00 Z M 475.00 226.00 L 475.00 227.00 L 464.00 227.00 L 464.00 228.00 L 460.00 228.00 L 460.00 229.00 L 457.00 229.00 L 456.00 231.00 L 454.00 231.00 L 453.00 234.00 L 452.00 234.00 L 452.00 236.00 L 451.00 236.00 L 451.00 242.00 L 452.00 242.00 L 452.00 244.00 L 453.00 244.00 L 455.00 247.00 L 459.00 248.00 L 459.00 249.00 L 470.00 249.00 L 470.00 248.00 L 475.00 247.00 L 477.00 244.00 L 479.00 244.00 L 479.00 242.00 L 481.00 241.00 L 482.00 236.00 L 483.00 236.00 L 484.00 226.00 Z M 684.00 226.00 L 684.00 227.00 L 673.00 227.00 L 673.00 228.00 L 669.00 228.00 L 669.00 229.00 L 666.00 229.00 L 665.00 231.00 L 663.00 231.00 L 662.00 234.00 L 661.00 234.00 L 661.00 236.00 L 660.00 236.00 L 660.00 242.00 L 661.00 242.00 L 661.00 244.00 L 662.00 244.00 L 664.00 247.00 L 668.00 248.00 L 668.00 249.00 L 679.00 249.00 L 679.00 248.00 L 684.00 247.00 L 686.00 244.00 L 688.00 244.00 L 688.00 242.00 L 690.00 241.00 L 691.00 236.00 L 692.00 236.00 L 693.00 226.00 Z"/>
</svg>
